<?xml version="1.0" encoding="utf-8"?>
<!-- Generator: Adobe Illustrator 17.1.0, SVG Export Plug-In . SVG Version: 6.00 Build 0)  -->
<!DOCTYPE svg PUBLIC "-//W3C//DTD SVG 1.1//EN" "http://www.w3.org/Graphics/SVG/1.1/DTD/svg11.dtd">
<svg version="1.1" id="Layer_1" xmlns="http://www.w3.org/2000/svg" xmlns:xlink="http://www.w3.org/1999/xlink" x="0px" y="0px"
	 viewBox="0 0 125 84" enable-background="new 0 0 125 84" xml:space="preserve">
<rect x="0" y="0" fill="#696968" width="125" height="84"/>
<g>
	<rect x="0.7" y="0.7" fill="#FFF9ED" width="123.6" height="82.6"/>
	<g>
		<rect x="0.7" y="0.7" fill="#A4243B" width="123.6" height="6.4"/>
		<rect x="0.7" y="13.4" fill="#A4243B" width="123.6" height="6.4"/>
		<rect x="0.7" y="26.1" fill="#A4243B" width="123.6" height="6.4"/>
		<rect x="0.7" y="38.8" fill="#A4243B" width="123.6" height="6.4"/>
		<rect x="0.7" y="51.5" fill="#A4243B" width="123.6" height="6.4"/>
		<rect x="0.7" y="64.2" fill="#A4243B" width="123.6" height="6.4"/>
		<rect x="0.7" y="77" fill="#A4243B" width="123.6" height="6.4"/>
	</g>
	<g>
		<rect x="0.7" y="0.7" fill="#1E3D74" width="52.5" height="44.5"/>
		<g>
			<polygon fill="#FFF9ED" points="4.4,2.3 4.9,3.9 6.5,3.9 5.2,4.9 5.7,6.5 4.4,5.5 3,6.5 3.6,4.9 2.2,3.9 3.9,3.9 			"/>
			<polygon fill="#FFF9ED" points="9.1,6.9 9.6,8.5 11.3,8.5 9.9,9.5 10.4,11.1 9.1,10.1 7.8,11.1 8.3,9.5 7,8.5 8.6,8.5 			"/>
			<polygon fill="#FFF9ED" points="13.4,2.3 13.9,3.9 15.5,3.9 14.2,4.9 14.7,6.5 13.4,5.5 12.1,6.5 12.6,4.9 11.3,3.9 12.9,3.9 			
				"/>
			<polygon fill="#FFF9ED" points="18.1,6.9 18.6,8.5 20.3,8.5 19,9.5 19.5,11.1 18.1,10.1 16.8,11.1 17.3,9.5 16,8.5 17.6,8.5 			
				"/>
			<polygon fill="#FFF9ED" points="22.4,2.3 22.9,3.9 24.6,3.9 23.2,4.9 23.7,6.5 22.4,5.5 21.1,6.5 21.6,4.9 20.3,3.9 21.9,3.9 			
				"/>
			<polygon fill="#FFF9ED" points="27.2,6.9 27.7,8.5 29.3,8.5 28,9.5 28.5,11.1 27.2,10.1 25.8,11.1 26.3,9.5 25,8.5 26.6,8.5 			
				"/>
			<polygon fill="#FFF9ED" points="31.4,2.3 32,3.9 33.6,3.9 32.3,4.9 32.8,6.5 31.4,5.5 30.1,6.5 30.6,4.9 29.3,3.9 30.9,3.9 			
				"/>
			<polygon fill="#FFF9ED" points="36.2,6.9 36.7,8.5 38.3,8.5 37,9.5 37.5,11.1 36.2,10.1 34.9,11.1 35.4,9.5 34,8.5 35.7,8.5 			
				"/>
			<polygon fill="#FFF9ED" points="40.5,2.3 41,3.9 42.6,3.9 41.3,4.9 41.8,6.5 40.5,5.5 39.1,6.5 39.7,4.9 38.3,3.9 40,3.9 			"/>
			<polygon fill="#FFF9ED" points="45.2,6.9 45.7,8.5 47.4,8.5 46,9.5 46.5,11.1 45.2,10.1 43.9,11.1 44.4,9.5 43.1,8.5 44.7,8.5 
							"/>
			<polygon fill="#FFF9ED" points="49.5,2.3 50,3.9 51.6,3.9 50.3,4.9 50.8,6.5 49.5,5.5 48.2,6.5 48.7,4.9 47.4,3.9 49,3.9 			"/>
			<polygon fill="#FFF9ED" points="4.4,11.6 4.9,13.2 6.5,13.2 5.2,14.2 5.7,15.8 4.4,14.8 3,15.8 3.6,14.2 2.2,13.2 3.9,13.2 			
				"/>
			<polygon fill="#FFF9ED" points="9.1,16.2 9.6,17.8 11.3,17.8 9.9,18.8 10.4,20.4 9.1,19.4 7.8,20.4 8.3,18.8 7,17.8 8.6,17.8 			
				"/>
			<polygon fill="#FFF9ED" points="13.4,11.6 13.9,13.2 15.5,13.2 14.2,14.2 14.7,15.8 13.4,14.8 12.1,15.8 12.6,14.2 11.3,13.2 
				12.9,13.2 			"/>
			<polygon fill="#FFF9ED" points="18.1,16.2 18.6,17.8 20.3,17.8 19,18.8 19.5,20.4 18.1,19.4 16.8,20.4 17.3,18.8 16,17.8 
				17.6,17.8 			"/>
			<polygon fill="#FFF9ED" points="22.4,11.6 22.9,13.2 24.6,13.2 23.2,14.2 23.7,15.8 22.4,14.8 21.1,15.8 21.6,14.2 20.3,13.2 
				21.9,13.2 			"/>
			<polygon fill="#FFF9ED" points="27.2,16.2 27.7,17.8 29.3,17.8 28,18.8 28.5,20.4 27.2,19.4 25.8,20.4 26.3,18.8 25,17.8 
				26.6,17.8 			"/>
			<polygon fill="#FFF9ED" points="31.4,11.6 32,13.2 33.6,13.2 32.3,14.2 32.8,15.8 31.4,14.8 30.1,15.8 30.6,14.2 29.3,13.2 
				30.9,13.2 			"/>
			<polygon fill="#FFF9ED" points="36.2,16.2 36.7,17.8 38.3,17.8 37,18.8 37.5,20.4 36.2,19.4 34.9,20.4 35.4,18.8 34,17.8 
				35.7,17.8 			"/>
			<polygon fill="#FFF9ED" points="40.5,11.6 41,13.2 42.6,13.2 41.3,14.2 41.8,15.8 40.5,14.8 39.1,15.8 39.7,14.2 38.3,13.2 
				40,13.2 			"/>
			<polygon fill="#FFF9ED" points="45.2,16.2 45.7,17.8 47.4,17.8 46,18.8 46.5,20.4 45.2,19.4 43.9,20.4 44.4,18.8 43.1,17.8 
				44.7,17.8 			"/>
			<polygon fill="#FFF9ED" points="49.5,11.6 50,13.2 51.6,13.2 50.3,14.2 50.8,15.8 49.5,14.8 48.2,15.8 48.7,14.2 47.4,13.2 
				49,13.2 			"/>
			<polygon fill="#FFF9ED" points="4.4,20.8 4.9,22.4 6.5,22.4 5.2,23.4 5.7,25 4.4,24 3,25 3.6,23.4 2.2,22.4 3.9,22.4 			"/>
			<polygon fill="#FFF9ED" points="9.1,25.5 9.6,27.1 11.3,27.1 9.9,28.1 10.4,29.7 9.1,28.7 7.8,29.7 8.3,28.1 7,27.1 8.6,27.1 			
				"/>
			<polygon fill="#FFF9ED" points="13.4,20.8 13.9,22.4 15.5,22.4 14.2,23.4 14.7,25 13.4,24 12.1,25 12.6,23.4 11.3,22.4 
				12.9,22.4 			"/>
			<polygon fill="#FFF9ED" points="18.1,25.5 18.6,27.1 20.3,27.1 19,28.1 19.5,29.7 18.1,28.7 16.8,29.7 17.3,28.1 16,27.1 
				17.6,27.1 			"/>
			<polygon fill="#FFF9ED" points="22.4,20.8 22.9,22.4 24.6,22.4 23.2,23.4 23.7,25 22.4,24 21.1,25 21.6,23.4 20.3,22.4 
				21.9,22.4 			"/>
			<polygon fill="#FFF9ED" points="27.2,25.5 27.7,27.1 29.3,27.1 28,28.1 28.5,29.7 27.2,28.7 25.8,29.7 26.3,28.1 25,27.1 
				26.6,27.1 			"/>
			<polygon fill="#FFF9ED" points="31.4,20.8 32,22.4 33.6,22.4 32.3,23.4 32.8,25 31.4,24 30.1,25 30.6,23.4 29.3,22.4 30.9,22.4 
							"/>
			<polygon fill="#FFF9ED" points="36.2,25.5 36.7,27.1 38.3,27.1 37,28.1 37.5,29.7 36.2,28.7 34.9,29.7 35.4,28.1 34,27.1 
				35.7,27.1 			"/>
			<polygon fill="#FFF9ED" points="40.5,20.8 41,22.4 42.6,22.4 41.3,23.4 41.8,25 40.5,24 39.1,25 39.7,23.4 38.3,22.4 40,22.4 			
				"/>
			<polygon fill="#FFF9ED" points="45.2,25.5 45.7,27.1 47.4,27.1 46,28.1 46.5,29.7 45.2,28.7 43.9,29.7 44.4,28.1 43.1,27.1 
				44.7,27.1 			"/>
			<polygon fill="#FFF9ED" points="49.5,20.8 50,22.4 51.6,22.4 50.3,23.4 50.8,25 49.5,24 48.2,25 48.7,23.4 47.4,22.4 49,22.4 			
				"/>
			<polygon fill="#FFF9ED" points="4.6,30.1 5.1,31.7 6.7,31.7 5.4,32.7 5.9,34.3 4.6,33.3 3.3,34.3 3.8,32.7 2.5,31.7 4.1,31.7 			
				"/>
			<polygon fill="#FFF9ED" points="13.6,30.1 14.1,31.7 15.8,31.7 14.4,32.7 14.9,34.3 13.6,33.3 12.3,34.3 12.8,32.7 11.5,31.7 
				13.1,31.7 			"/>
			<polygon fill="#FFF9ED" points="22.7,30.1 23.2,31.7 24.8,31.7 23.5,32.7 24,34.3 22.7,33.3 21.3,34.3 21.8,32.7 20.5,31.7 
				22.1,31.7 			"/>
			<polygon fill="#FFF9ED" points="31.7,30.1 32.2,31.7 33.8,31.7 32.5,32.7 33,34.3 31.7,33.3 30.3,34.3 30.9,32.7 29.5,31.7 
				31.2,31.7 			"/>
			<polygon fill="#FFF9ED" points="40.7,30.1 41.2,31.7 42.8,31.7 41.5,32.7 42,34.3 40.7,33.3 39.4,34.3 39.9,32.7 38.5,31.7 
				40.2,31.7 			"/>
			<polygon fill="#FFF9ED" points="49.7,30.1 50.2,31.7 51.9,31.7 50.5,32.7 51,34.3 49.7,33.3 48.4,34.3 48.9,32.7 47.6,31.7 
				49.2,31.7 			"/>
			<polygon fill="#FFF9ED" points="8.9,34.8 9.4,36.4 11,36.4 9.7,37.3 10.2,39 8.9,38 7.6,39 8.1,37.3 6.7,36.4 8.4,36.4 			"/>
			<polygon fill="#FFF9ED" points="17.9,34.8 18.4,36.4 20.1,36.4 18.7,37.3 19.2,39 17.9,38 16.6,39 17.1,37.3 15.8,36.4 
				17.4,36.4 			"/>
			<polygon fill="#FFF9ED" points="26.9,34.8 27.4,36.4 29.1,36.4 27.7,37.3 28.3,39 26.9,38 25.6,39 26.1,37.3 24.8,36.4 
				26.4,36.4 			"/>
			<polygon fill="#FFF9ED" points="36,34.8 36.5,36.4 38.1,36.4 36.8,37.3 37.3,39 36,38 34.6,39 35.1,37.3 33.8,36.4 35.5,36.4 			
				"/>
			<polygon fill="#FFF9ED" points="45,34.8 45.5,36.4 47.1,36.4 45.8,37.3 46.3,39 45,38 43.7,39 44.2,37.3 42.8,36.4 44.5,36.4 			
				"/>
			<polygon fill="#FFF9ED" points="4.4,39.4 4.9,41 6.5,41 5.2,42 5.7,43.6 4.4,42.6 3,43.6 3.6,42 2.2,41 3.9,41 			"/>
			<polygon fill="#FFF9ED" points="13.4,39.4 13.9,41 15.5,41 14.2,42 14.7,43.6 13.4,42.6 12.1,43.6 12.6,42 11.3,41 12.9,41 			
				"/>
			<polygon fill="#FFF9ED" points="22.4,39.4 22.9,41 24.6,41 23.2,42 23.7,43.6 22.4,42.6 21.1,43.6 21.6,42 20.3,41 21.9,41 			
				"/>
			<polygon fill="#FFF9ED" points="31.4,39.4 32,41 33.6,41 32.3,42 32.8,43.6 31.4,42.6 30.1,43.6 30.6,42 29.3,41 30.9,41 			"/>
			<polygon fill="#FFF9ED" points="40.5,39.4 41,41 42.6,41 41.3,42 41.8,43.6 40.5,42.6 39.1,43.6 39.7,42 38.3,41 40,41 			"/>
			<polygon fill="#FFF9ED" points="49.5,39.4 50,41 51.6,41 50.3,42 50.8,43.6 49.5,42.6 48.2,43.6 48.7,42 47.4,41 49,41 			"/>
		</g>
	</g>
</g>
</svg>
